Coordinates
version=1
nRows=12
nColumns=42
inDegrees=yes

Units are S.I. units (second, meters, Newtons, ...)
If the header above contains a line with 'inDegrees', this indicates whether rotational values are in degrees (yes) or radians (no).

endheader
time	pelvis_tilt	pelvis_list	pelvis_rotation	pelvis_tx	pelvis_ty	pelvis_tz	hip_flexion_r	hip_adduction_r	hip_rotation_r	knee_angle_r	knee_adduction_r	knee_angle_r_beta	ankle_angle_r	subtalar_angle_r	mtp_angle_r	hip_flexion_l	hip_adduction_l	hip_rotation_l	knee_angle_l	knee_adduction_l	knee_angle_l_beta	ankle_angle_l	subtalar_angle_l	mtp_angle_l	lumbar_extension	lumbar_bending	lumbar_rotation	arm_flex_r	arm_add_r	arm_rot_r	elbow_flex_r	pro_sup_r	wrist_flex_r	wrist_dev_r	arm_flex_l	arm_add_l	arm_rot_l	elbow_flex_l	pro_sup_l	wrist_flex_l	wrist_dev_l
      0.74000000	      0.93709859	     -1.21030304	      1.39186514	     -0.00264693	      0.98390829	     -0.24421643	     19.62086620	      0.06020558	     -5.78631369	     47.46881830	      0.65881831	      0.82848717	      1.60632372	    -13.45456511	     -7.66313476	     -3.11018291	      0.40016330	      1.57118327	      8.19117491	      1.17991209	      0.14296297	      7.50518078	     -0.03306693	     -7.66313476	    -11.88889616	     -1.45003901	      0.80289433	    -13.55842818	    -11.34159766	      3.69809844	     38.95261466	     90.00000001	      0.00000000	      0.00000000	      0.66029170	    -14.01417606	      9.49987998	     35.70715463	     90.00000001	      0.00000000	      0.00000000
      0.75000000	      1.32023587	     -1.71423576	      1.80903701	      0.01131033	      0.98342015	     -0.24467044	     19.73356145	      0.50339705	     -5.64773697	     44.51199855	      1.23004632	      0.77688093	      1.99173410	    -13.41434076	     -7.65651558	     -4.83140243	     -0.27810618	      2.33539728	      7.33742421	      1.35721211	      0.12806221	      8.22593752	      0.18780168	     -7.65651558	    -12.28062053	     -0.72238122	      0.60154916	    -14.06043303	    -11.33601111	      2.93824217	     38.92483681	     90.00000001	      0.00000000	      0.00000000	      1.39608159	    -14.59008341	     11.94704103	     37.21793992	     90.00000001	      0.00000000	      0.00000000
      0.76000000	      0.95663944	     -1.50280075	      1.90432439	      0.02475019	      0.98151933	     -0.24537337	     20.92551678	      0.15576300	     -5.77655578	     41.93822361	      1.28522056	      0.73196008	      2.11834307	    -12.85472024	     -7.65464367	     -5.41094860	      0.05396131	      2.26598976	      7.16310636	      1.19457270	      0.12501979	      8.71960874	      0.26179979	     -7.65464367	    -11.88243087	     -0.80340059	      0.44045614	    -14.54456854	    -11.46471357	      2.80533203	     38.90004455	     90.00000001	      0.00000000	      0.00000000	      2.20959888	    -14.58521673	     12.24802999	     38.10249019	     90.00000001	      0.00000000	      0.00000000
      0.77000000	      1.35790070	     -1.94313987	      2.25285034	      0.03873050	      0.98043892	     -0.24556615	     20.84758734	      0.56294223	     -6.05030094	     38.55911752	      1.45796510	      0.67298356	      2.35517127	    -12.33783289	     -7.64783679	     -7.03630143	     -0.59894460	      2.87778206	      6.54984071	      1.41373412	      0.11431629	      9.37837652	      0.23023837	     -7.64783679	    -12.28612260	     -0.17390988	      0.34904353	    -14.96044195	    -11.39986924	      2.01234595	     38.78680069	     90.00000001	      0.00000000	      0.00000000	      3.11170617	    -15.10335468	     14.45683976	     39.43388563	     90.00000001	      0.00000000	      0.00000000
      0.78000000	      0.95715658	     -1.62940549	      2.25505584	      0.05208547	      0.97790987	     -0.24609561	     21.92807940	      0.15399199	     -6.27705543	     35.66982900	      1.34954994	      0.62255596	      2.45797448	    -11.58866805	     -7.64596357	     -7.52799299	     -0.13571686	      2.80685244	      6.49228555	      1.24438074	      0.11331176	      9.94324170	      0.22332301	     -7.64596357	    -11.87663282	     -0.37105987	      0.24343609	    -15.32635809	    -11.49690099	      1.87211324	     38.71305803	     90.00000001	      0.00000000	      0.00000000	      3.94192150	    -15.12732077	     14.75420448	     40.31342552	     90.00000001	      0.00000000	      0.00000000
      0.79000000	      1.30021056	     -1.98192975	      2.51060158	      0.06610492	      0.97621980	     -0.24607317	     21.74436255	      0.51941923	     -6.79532594	     31.97924869	      1.25479291	      0.55814318	      2.83782412	    -10.22332607	     -7.63984363	     -9.00003872	     -0.70598084	      3.21590010	      6.09095321	      1.48928238	      0.10630719	     10.60952318	      0.08635055	     -7.63984363	    -12.22803711	      0.13734293	      0.23115275	    -15.60686771	    -11.37604372	      1.09160254	     38.41222950	     90.00000001	      0.00000000	      0.00000000	      4.91144747	    -15.57165483	     16.68107369	     41.50238580	     90.00000001	      0.00000000	      0.00000000
      0.80000000	      0.85847358	     -1.51040682	      2.39901407	      0.07966552	      0.97310109	     -0.24636834	     22.77945963	     -0.03533207	     -7.36465451	     29.03751142	      1.02274704	      0.50680018	      2.84406977	     -9.44670141	     -7.63833212	     -9.43608347	     -0.07874543	      2.96103495	      6.11897656	      1.38144621	      0.10679629	     11.13156027	      0.01011469	     -7.63833212	    -11.75685421	     -0.27794725	      0.28328918	    -15.99317359	    -11.44121453	      1.01603858	     38.30319488	     90.00000001	      0.00000000	      0.00000000	      5.75321728	    -15.53319053	     16.85236444	     42.29638015	     90.00000001	      0.00000000	      0.00000000
      0.81000000	      1.18120278	     -1.84088466	      2.60423421	      0.09352610	      0.97107968	     -0.24616480	     22.34777709	      0.39995773	     -7.75803409	     24.94440051	      0.84667999	      0.43536192	      3.22403451	     -6.98024583	     -7.63241913	    -10.83096314	     -0.60578208	      3.24360739	      5.81296354	      1.58939896	      0.10145535	     11.79366828	     -0.11049315	     -7.63241913	    -12.13877157	      0.21603495	      0.20536822	    -16.01701534	    -11.27363297	      0.20259547	     37.86602378	     90.00000001	      0.00000000	      0.00000000	      6.75916676	    -15.97877416	     18.58850679	     43.34464677	     90.00000001	      0.00000000	      0.00000000
      0.82000000	      1.13751898	     -1.70382045	      2.63281378	      0.10737039	      0.96830240	     -0.24616445	     22.50843984	      0.27627583	     -8.39961721	     21.42277670	      0.63773711	      0.37389799	      3.38154704	     -4.90629485	     -7.62634242	    -11.78092998	     -0.48586587	      3.23027271	      5.67281502	      1.65501254	      0.09900930	     12.30110624	     -0.23943547	     -7.62634242	    -12.12349289	      0.18466703	      0.19222572	    -16.16302966	    -11.21757169	     -0.20079023	     37.56958792	     90.00000001	      0.00000000	      0.00000000	      7.65127321	    -16.12022824	     19.33641432	     44.17861060	     90.00000001	      0.00000000	      0.00000000
      0.83000000	      0.66245074	     -1.26570457	      2.57450992	      0.12081545	      0.96486076	     -0.24630367	     23.16772310	     -0.21329180	     -8.63437963	     18.17957476	      0.66177134	      0.31729344	      3.24461877	     -3.30590130	     -7.62415360	    -12.14707304	      0.07242523	      3.12925200	      5.76225360	      1.59069780	      0.10057030	     12.84273620	     -0.25131885	     -7.62415360	    -11.68881193	     -0.18121937	      0.13061106	    -16.24345027	    -11.19154259	     -0.38093277	     37.24853767	     90.00000001	      0.00000000	      0.00000000	      8.48232853	    -16.17616788	     19.67885885	     44.92814680	     90.00000001	      0.00000000	      0.00000000
      0.84000000	      0.87646453	     -1.26720496	      2.60370183	      0.13520559	      0.96222066	     -0.24601015	     22.84715201	     -0.11340412	     -9.42481210	     14.84066623	      0.47938178	      0.25901849	      3.34972013	     -1.12401705	     -7.61863966	    -13.42522534	     -0.03733121	      2.88515083	      5.58745640	      1.73279174	      0.09751951	     13.29833027	     -0.18950062	     -7.61863966	    -11.91655663	     -0.06174729	      0.17087576	    -16.29435887	    -11.04725993	     -1.02020909	     36.81089083	     90.00000001	      0.00000000	      0.00000000	      9.36195763	    -16.34942083	     20.57257289	     45.65099651	     90.00000001	      0.00000000	      0.00000000
      0.85000000	      0.47830924	     -0.84108278	      2.56216734	      0.14906072	      0.95879282	     -0.24604872	     23.33297980	     -0.57329926	     -9.79166934	     12.14440150	      0.56600883	      0.21195979	      3.18762570	      0.37553891	     -7.61636960	    -13.89730839	      0.45293103	      2.72231629	      5.68698403	      1.72867113	      0.09925660	     13.73537128	     -0.14106791	     -7.61636960	    -11.54066589	     -0.40434519	      0.07529938	    -16.30102109	    -11.00263049	     -1.21379324	     36.40375393	     90.00000001	      0.00000000	      0.00000000	     10.10016907	    -16.37325987	     20.79181155	     46.24583490	     90.00000001	      0.00000000	      0.00000000
